<svg xmlns="http://www.w3.org/2000/svg" viewBox="0 0 400 500" role="img" aria-label="Portrait stylise numero 3">
  <defs>
    <linearGradient id="bg3" x1="0" y1="0" x2="0" y2="1">
      <stop offset="0" stop-color="#141033"/><stop offset="1" stop-color="#0a0a0f"/>
    </linearGradient>
    <linearGradient id="hair3" x1="0" y1="0" x2="1" y2="1">
      <stop offset="0" stop-color="#67e8f9"/><stop offset="1" stop-color="#7c3aed"/>
    </linearGradient>
    <linearGradient id="cloth3" x1="0" y1="0" x2="0" y2="1">
      <stop offset="0" stop-color="#eceff5"/><stop offset="1" stop-color="#b9bfd0"/>
    </linearGradient>
  </defs>
  <rect width="400" height="500" fill="url(#bg3)"/>
  <circle cx="200" cy="230" r="132" fill="none" stroke="#8b5cf6" stroke-width="2" opacity=".35"/>
  <circle cx="200" cy="230" r="164" fill="none" stroke="#8b5cf6" stroke-width="1" opacity=".16"/>
  <circle cx="330" cy="104" r="20" fill="none" stroke="#67e8f9" stroke-width="3" opacity=".65"/>
  <ellipse cx="330" cy="104" rx="36" ry="11" fill="none" stroke="#67e8f9" stroke-width="2" opacity=".5" transform="rotate(-20 330 104)"/>
  <circle cx="66" cy="140" r="3" fill="#67e8f9" opacity=".8"/>
  <circle cx="94" cy="96" r="2" fill="#8b5cf6" opacity=".9"/>
  <rect x="178" y="292" width="44" height="76" rx="16" fill="#e8c9ab"/>
  <path d="M56 500c0-82 64-142 144-142s144 60 144 142z" fill="url(#cloth3)"/>
  <path d="M170 362l30 42 30-42 6 138h-72z" fill="#241b3d"/>
  <ellipse cx="200" cy="248" rx="70" ry="84" fill="#f2dac4"/>
  <path d="M116 250c-4-80 38-128 84-128s88 48 84 128c-4-22-12-48-24-60-16 26-44 22-58 4-16 20-46 20-62-2-12 12-20 40-24 58z" fill="url(#hair3)"/>
  <path d="M166 254h28M206 254h28" stroke="#2a2040" stroke-width="8" stroke-linecap="round"/>
  <path d="M182 296q18 8 36-4" stroke="#2a2040" stroke-width="5" stroke-linecap="round" fill="none"/>
</svg>
