<svg xmlns="http://www.w3.org/2000/svg" viewBox="0 0 120 120" width="120" height="120">
  <circle cx="60" cy="60" r="55" fill="#14505A" opacity="0.1"/>
  <!-- Message bubble -->
  <path d="M20 30 Q20 20 30 20 L90 20 Q100 20 100 30 L100 70 Q100 80 90 80 L65 80 L50 95 L50 80 L30 80 Q20 80 20 70Z" fill="#14505A" opacity="0.15" stroke="#14505A" stroke-width="2"/>
  <!-- Lines inside bubble -->
  <line x1="35" y1="40" x2="85" y2="40" stroke="#14505A" stroke-width="3" stroke-linecap="round"/>
  <line x1="35" y1="53" x2="75" y2="53" stroke="#14505A" stroke-width="3" stroke-linecap="round"/>
  <line x1="35" y1="66" x2="60" y2="66" stroke="#E64128" stroke-width="3" stroke-linecap="round"/>
  <!-- People icons -->
  <circle cx="40" cy="108" r="8" fill="#14505A" opacity="0.6"/>
  <circle cx="60" cy="105" r="10" fill="#E64128" opacity="0.8"/>
  <circle cx="80" cy="108" r="8" fill="#14505A" opacity="0.6"/>
  <path d="M25 120 Q30 110 40 110 Q50 110 55 120" fill="#14505A" opacity="0.3"/>
  <path d="M45 120 Q50 108 60 108 Q70 108 75 120" fill="#E64128" opacity="0.4"/>
  <path d="M65 120 Q70 110 80 110 Q90 110 95 120" fill="#14505A" opacity="0.3"/>
</svg>
