<svg xmlns="http://www.w3.org/2000/svg" viewBox="0 0 200 80" width="200" height="80">
  <rect width="200" height="80" rx="4" fill="#f8f9fa"/>
  <!-- EU Flag stars circle -->
  <rect x="8" y="12" width="44" height="30" fill="#003399"/>
  <!-- 12 stars in circle -->
  <g fill="#FFCC00">
    <polygon points="30,16 31,19 34,19 31.5,21 32.5,24 30,22 27.5,24 28.5,21 26,19 29,19" transform="scale(0.7) translate(13,7)"/>
    <polygon points="39,19 40,22 43,22 40.5,24 41.5,27 39,25 36.5,27 37.5,24 35,22 38,22" transform="scale(0.7) translate(4,4)"/>
    <polygon points="43,28 44,31 47,31 44.5,33 45.5,36 43,34 40.5,36 41.5,33 39,31 42,31" transform="scale(0.7) translate(0,0)"/>
    <polygon points="39,37 40,40 43,40 40.5,42 41.5,45 39,43 36.5,45 37.5,42 35,40 38,40" transform="scale(0.7) translate(4,-4)"/>
    <polygon points="30,40 31,43 34,43 31.5,45 32.5,48 30,46 27.5,48 28.5,45 26,43 29,43" transform="scale(0.7) translate(13,-7)"/>
  </g>
  <text x="60" y="24" font-family="Arial" font-size="9.5" font-weight="700" fill="#003399">Union européenne</text>
  <text x="60" y="36" font-family="Arial" font-size="8.5" fill="#003399">FEDER-FSE+</text>
  <text x="60" y="50" font-family="Arial" font-size="8" fill="#666">Fonds structurels</text>
</svg>
