<svg xmlns="http://www.w3.org/2000/svg" viewBox="0 0 120 120" width="120" height="120">
  <circle cx="60" cy="60" r="55" fill="#14505A" opacity="0.1"/>
  <!-- Building/institution icon -->
  <rect x="30" y="55" width="60" height="40" rx="2" fill="#14505A" opacity="0.2"/>
  <rect x="30" y="55" width="60" height="40" rx="2" fill="none" stroke="#14505A" stroke-width="2"/>
  <!-- Columns -->
  <rect x="38" y="60" width="8" height="30" fill="#14505A" opacity="0.5"/>
  <rect x="52" y="60" width="8" height="30" fill="#14505A" opacity="0.5"/>
  <rect x="66" y="60" width="8" height="30" fill="#14505A" opacity="0.5"/>
  <rect x="80" y="60" width="8" height="30" fill="#14505A" opacity="0.5"/>
  <!-- Roof/pediment -->
  <polygon points="25,55 60,30 95,55" fill="#14505A" opacity="0.7"/>
  <!-- Base -->
  <rect x="25" y="93" width="70" height="5" rx="1" fill="#14505A"/>
  <!-- Star/crown on top -->
  <polygon points="60,22 63,30 71,30 65,35 67,43 60,38 53,43 55,35 49,30 57,30" fill="#E64128"/>
  <!-- Door -->
  <rect x="52" y="78" width="16" height="17" rx="2" fill="#E64128" opacity="0.6"/>
</svg>
