<svg xmlns="http://www.w3.org/2000/svg" viewBox="0 0 280 80" width="280" height="80">
  <!-- Leaf/Bio icon -->
  <g transform="translate(8, 10)">
    <path d="M30 5 C10 5 5 20 5 35 C5 50 15 58 30 58 C45 58 55 50 55 35 C55 20 50 5 30 5Z" fill="#ffffff" opacity="0.15"/>
    <path d="M15 45 Q20 20 45 15" stroke="#ffffff" stroke-width="2.5" fill="none" stroke-linecap="round"/>
    <path d="M15 45 Q30 35 45 15" stroke="#ffffff" stroke-width="2" fill="none" stroke-linecap="round" opacity="0.6"/>
    <circle cx="15" cy="45" r="3" fill="#E64128"/>
    <path d="M22 18 C18 12 12 10 8 14 C4 18 8 26 15 25 C20 24 23 20 22 18Z" fill="#ffffff" opacity="0.9"/>
    <path d="M42 38 C46 32 48 25 44 21 C40 17 32 20 30 27 C28 32 30 38 35 40Z" fill="#ffffff" opacity="0.7"/>
  </g>
  <!-- Text -->
  <text x="78" y="36" font-family="Georgia, serif" font-size="26" font-weight="700" fill="#ffffff" letter-spacing="-0.5">Qualitropic</text>
  <text x="78" y="56" font-family="Arial, sans-serif" font-size="10" fill="#E64128" letter-spacing="1" font-weight="600">PÔLE DE COMPÉTITIVITÉ</text>
  <text x="78" y="70" font-family="Arial, sans-serif" font-size="9" fill="#ffffff" letter-spacing="0.5" opacity="0.8">BIOÉCONOMIE TROPICALE</text>
</svg>
