<svg xmlns="http://www.w3.org/2000/svg" viewBox="0 0 120 120" width="120" height="120">
  <circle cx="60" cy="60" r="55" fill="#14505A" opacity="0.1"/>
  <circle cx="60" cy="60" r="42" fill="#14505A" opacity="0.15"/>
  <!-- DNA/Bio helix -->
  <path d="M40 30 Q60 45 80 30" stroke="#14505A" stroke-width="3" fill="none" stroke-linecap="round"/>
  <path d="M40 45 Q60 60 80 45" stroke="#14505A" stroke-width="3" fill="none" stroke-linecap="round"/>
  <path d="M40 60 Q60 75 80 60" stroke="#14505A" stroke-width="3" fill="none" stroke-linecap="round"/>
  <path d="M40 75 Q60 90 80 75" stroke="#14505A" stroke-width="3" fill="none" stroke-linecap="round"/>
  <!-- Vertical lines connecting -->
  <line x1="40" y1="30" x2="40" y2="75" stroke="#E64128" stroke-width="2.5" stroke-linecap="round"/>
  <line x1="80" y1="30" x2="80" y2="75" stroke="#E64128" stroke-width="2.5" stroke-linecap="round"/>
  <!-- Leaf accent -->
  <path d="M50 90 C45 80 48 70 60 68 C72 70 75 80 70 90 C65 95 55 95 50 90Z" fill="#14505A" opacity="0.7"/>
  <path d="M60 90 L60 100" stroke="#14505A" stroke-width="2" stroke-linecap="round"/>
  <circle cx="40" cy="30" r="4" fill="#14505A"/>
  <circle cx="80" cy="30" r="4" fill="#14505A"/>
  <circle cx="40" cy="45" r="3" fill="#E64128"/>
  <circle cx="80" cy="45" r="3" fill="#E64128"/>
  <circle cx="40" cy="60" r="4" fill="#14505A"/>
  <circle cx="80" cy="60" r="4" fill="#14505A"/>
  <circle cx="40" cy="75" r="3" fill="#E64128"/>
  <circle cx="80" cy="75" r="3" fill="#E64128"/>
</svg>
